<svg width="67" height="68" xmlns="http://www.w3.org/2000/svg" xmlns:xlink="http://www.w3.org/1999/xlink" overflow="hidden"><defs><clipPath id="clip0"><path d="M1122 29 1189 29 1189 97 1122 97Z" fill-rule="evenodd" clip-rule="evenodd"/></clipPath><clipPath id="clip1"><path d="M1123 29 1189 29 1189 96 1123 96Z" fill-rule="evenodd" clip-rule="evenodd"/></clipPath><clipPath id="clip2"><path d="M1123 29 1189 29 1189 96 1123 96Z" fill-rule="evenodd" clip-rule="evenodd"/></clipPath></defs><g clip-path="url(#clip0)" transform="translate(-1122 -29)"><g clip-path="url(#clip1)"><g clip-path="url(#clip2)"><path d="M27.2585 67.3493C14.3466 64.5597 4.7822 54.3576 2.23169 40.8081-0.159407 28.0556 6.29656 14.3466 17.7738 7.65152 32.8378-1.19555 53.1621 3.74605 61.9295 18.4115 69.7404 31.4828 68.0666 47.1046 57.7052 58.1834 53.3215 62.8859 47.7423 65.9146 40.8878 67.3493 34.4318 68.7042 33.7145 68.7042 27.2585 67.3493ZM47.2641 63.2047C74.2038 50.5319 68.7042 10.6802 39.214 5.49953 26.2224 3.18813 12.9119 10.1223 7.01389 22.1575 4.54309 27.1788 4.38368 27.9759 4.38368 35.8665 4.38368 43.3586 4.62279 44.7135 6.53567 48.6987 9.16588 53.8794 14.9045 60.0166 19.4476 62.328 25.3456 65.3567 28.8526 66.1537 35.468 65.9146 40.7284 65.6755 42.9601 65.1973 47.2641 63.2047Z" transform="matrix(1 0 0 -1.00818 1121.4 98.6043)"/><path d="M33.7145 64.0017C32.9175 63.7626 32.6783 60.7339 32.6783 52.923L32.6783 42.2427 21.1214 42.2427 9.56439 42.2427 10.3614 44.2353C12.7525 50.4522 18.1724 56.3502 24.1501 58.9804L27.4976 60.4948 27.7367 54.8359C27.8962 51.7274 27.8165 48.6987 27.5773 48.0611 27.0991 46.9452 18.3318 46.5467 18.3318 47.6626 18.3318 48.0611 19.2085 49.1769 20.3243 50.2131 21.9981 51.7274 22.3169 51.8868 22.3169 50.771 22.3169 49.974 22.9545 49.416 23.911 49.416 25.2659 49.416 25.5051 49.974 25.5051 53.4012L25.5051 57.4661 23.114 56.1908C20.0852 54.5968 15.5421 50.0537 13.9481 47.0249L12.6728 44.6338 21.6793 44.6338 30.6858 44.6338 30.6858 54.2779 30.6858 63.8423 27.9759 63.3641C23.6719 62.5671 17.8535 59.2993 14.2669 55.7126 10.8396 52.2854 6.37626 43.8368 6.37626 40.8878L6.37626 39.0546 34.3521 39.0546 62.4077 39.0546 61.9295 41.9239C60.6542 49.6552 54.9156 56.9082 46.8655 60.8933 38.0982 65.3567 38.2576 65.5161 38.2576 54.1982L38.2576 44.6338 47.1046 44.6338 55.872 44.6338 54.0388 47.9017C52.0462 51.4086 49.0175 54.3576 45.3512 56.2705L43.0398 57.4661 43.0398 53.4012C43.0398 49.974 43.2789 49.416 44.6338 49.416 45.5903 49.416 46.2279 49.974 46.2279 50.771 46.2279 51.8868 46.5467 51.7274 48.2205 50.2131 49.3363 49.1769 50.2131 48.0611 50.2131 47.6626 50.2131 46.5467 41.4457 46.9452 40.9675 48.0611 40.7284 48.6987 40.6487 51.7274 40.8081 54.9156L41.0472 60.6542 45.1121 58.5819C50.2131 56.0314 54.5968 51.7274 57.0676 46.8655 58.1037 44.7933 58.9804 42.8804 58.9804 42.6413 58.9804 42.4022 53.7997 42.2427 47.4235 42.2427L35.8665 42.2427 35.8665 52.923C35.8665 58.821 35.6274 63.8423 35.3086 64.0017 34.91 64.1611 34.1927 64.1611 33.7145 64.0017Z" transform="matrix(1 0 0 -1.00818 1121.4 98.6043)"/><path d="M5.57923 35.8665C5.57923 34.2724 6.13715 34.2724 34.2724 34.2724 62.4077 34.2724 62.9656 34.2724 62.9656 35.8665 62.9656 37.4605 62.4077 37.4605 34.2724 37.4605 6.13715 37.4605 5.57923 37.4605 5.57923 35.8665Z" transform="matrix(1 0 0 -1.00818 1121.4 98.6043)"/><path d="M6.37626 30.1278C6.37626 27.0991 10.0426 20.2446 13.6293 16.3392 17.1362 12.5134 22.0778 9.56439 27.1788 8.12974L30.0481 7.3327 30.5264 12.2743C30.7655 14.9045 30.7655 19.3679 30.5264 22.1575L30.0481 27.0991 21.4402 27.0991C16.658 27.0991 12.7525 26.7803 12.7525 26.4615 12.7525 23.9907 22.3966 14.3466 24.8674 14.3466 25.1862 14.3466 25.5051 15.9407 25.5051 17.9332 25.5051 20.962 25.2659 21.5199 23.911 21.5199 22.9545 21.5199 22.3169 20.962 22.3169 20.1649 22.3169 19.0491 21.9981 19.2085 20.3243 20.7229 19.2085 21.759 18.3318 22.8748 18.3318 23.2734 18.3318 23.5922 20.4837 23.911 23.114 23.911L27.8962 23.911 27.8962 17.5347C27.8962 13.6293 27.5773 11.1585 27.0991 11.1585 25.5848 11.1585 20.0055 14.3466 17.2159 16.8174 14.2669 19.3679 11.7961 22.8748 10.4411 26.5412L9.56439 28.6932 21.1214 28.6932 32.6783 28.6932 32.6783 17.9332C32.6783 7.73122 32.7581 7.1733 34.2724 7.1733 35.7868 7.1733 35.8665 7.73122 35.8665 17.9332L35.8665 28.6932 47.4235 28.6932 58.9804 28.6932 58.1037 26.5412C56.7487 22.8748 54.2779 19.3679 51.3289 16.8174 48.5393 14.3466 42.9601 11.1585 41.4457 11.1585 40.9675 11.1585 40.6487 13.6293 40.6487 17.5347L40.6487 23.911 45.9888 23.911 51.3289 23.911 48.9378 21.4402C47.1843 19.607 46.5467 19.2882 46.3873 20.2446 46.2279 20.962 45.4309 21.5199 44.5541 21.5199 43.2789 21.5199 43.0398 20.962 43.0398 17.9332 43.0398 13.9481 43.0398 13.8684 46.0685 15.4624 49.2566 17.1362 55.7923 24.5486 55.7923 26.4615 55.7923 26.86 51.8868 27.0991 47.0249 27.0991L38.2576 27.0991 38.2576 17.2159 38.2576 7.3327 40.8878 7.97033C45.7497 9.08618 49.416 11.0788 53.4809 14.9045 57.7052 18.81 62.1686 26.6209 62.1686 30.1278L62.1686 31.8813 34.2724 31.8813 6.37626 31.8813 6.37626 30.1278Z" transform="matrix(1 0 0 -1.00818 1121.4 98.6043)"/></g></g></g></svg>